<?xml version="1.0" standalone="no"?>
<!DOCTYPE svg PUBLIC "-//W3C//DTD SVG 20010904//EN"
 "http://www.w3.org/TR/2001/REC-SVG-20010904/DTD/svg10.dtd">
<svg version="1.0" xmlns="http://www.w3.org/2000/svg"
 width="393.000000pt" height="213.000000pt" viewBox="0 0 393.000000 213.000000"
 preserveAspectRatio="xMidYMid meet">
<metadata>
Created by potrace 1.16, written by Peter Selinger 2001-2019
</metadata>
<g transform="translate(0.000000,213.000000) scale(0.100000,-0.100000)"
fill="#000000" stroke="none">
<path d="M963 1887 c-71 -48 -78 -70 -42 -144 28 -59 98 -118 246 -210 206
-129 264 -209 243 -339 -18 -109 -80 -185 -194 -240 -116 -56 -106 -80 -106
270 l0 303 -62 41 -63 42 -3 -443 -2 -442 65 -65 65 -65 0 128 c0 70 4 127 9
127 5 0 31 -15 57 -32 56 -38 107 -110 149 -212 53 -127 142 -208 246 -222
l44 -6 42 79 42 79 -75 12 c-78 12 -155 41 -187 69 -10 10 -36 52 -58 94 -22
42 -60 96 -84 120 l-44 43 49 24 c194 92 293 347 207 534 -32 72 -88 126 -179
173 -103 54 -177 105 -224 157 -51 55 -63 77 -72 128 l-7 39 -62 -42z"/>
<path d="M2563 1567 l-53 -32 0 -392 0 -392 52 -36 c29 -19 56 -35 60 -35 5 0
8 207 8 460 0 253 -3 460 -7 460 -5 -1 -32 -15 -60 -33z"/>
<path d="M2723 1567 l-53 -32 0 -391 0 -391 55 -37 c30 -20 57 -36 60 -36 3 0
5 207 5 460 0 253 -3 460 -7 459 -5 0 -32 -15 -60 -32z"/>
<path d="M1750 1159 c0 -359 1 -372 21 -400 72 -101 231 -105 296 -7 46 69 67
222 43 310 -29 103 -145 161 -214 107 l-26 -20 0 155 0 155 -55 36 c-31 19
-58 35 -60 35 -3 0 -5 -167 -5 -371z m220 -29 c10 -5 26 -30 35 -54 25 -64 18
-227 -11 -276 -26 -45 -63 -59 -98 -36 l-26 16 0 151 c0 145 6 183 34 201 15
11 44 10 66 -2z"/>
<path d="M1624 1349 c-25 -9 -54 -46 -54 -70 0 -9 9 -28 21 -43 54 -68 161 6
119 84 -13 23 -59 39 -86 29z"/>
<path d="M2295 1191 c-72 -18 -117 -65 -141 -149 -43 -146 24 -333 143 -399
l39 -22 32 41 c36 47 39 58 15 58 -16 0 -93 73 -93 89 0 5 16 11 36 14 86 14
146 86 152 183 8 128 -74 211 -183 185z m105 -103 c43 -70 11 -182 -62 -219
-22 -11 -46 -18 -53 -15 -34 13 -25 207 12 248 9 11 30 18 50 18 27 0 37 -6
53 -32z"/>
<path d="M2974 1190 c-43 -10 -88 -43 -113 -84 -75 -121 -29 -353 87 -442 25
-19 53 -34 62 -34 15 0 79 76 69 83 -2 1 -17 9 -33 17 -16 8 -39 30 -52 49
l-24 35 43 11 c95 24 147 95 147 199 0 33 -7 73 -16 92 -27 57 -102 89 -170
74z m107 -104 c51 -83 -9 -223 -98 -229 -24 -2 -28 2 -35 38 -9 52 1 152 19
188 27 53 82 55 114 3z"/>
<path d="M1650 1157 l-55 -33 -3 -187 -2 -187 55 -36 c30 -20 58 -35 60 -32 3
3 4 118 3 256 l-3 252 -55 -33z"/>
</g>
</svg>
